<?xml version="1.0" encoding="UTF-8" standalone="no"?>
<svg width="80px" height="93px" viewBox="0 0 80 93" version="1.1" xmlns="http://www.w3.org/2000/svg" xmlns:xlink="http://www.w3.org/1999/xlink" xmlns:sketch="http://www.bohemiancoding.com/sketch/ns">
    <!-- Generator: Sketch 3.3.3 (12081) - http://www.bohemiancoding.com/sketch -->
    <title>Slice 1</title>
    <desc>Created with Sketch.</desc>
    <defs></defs>
    <g id="Page-1" stroke="none" stroke-width="1" fill="none" fill-rule="evenodd" sketch:type="MSPage">
        <g id="bubble" sketch:type="MSLayerGroup" transform="translate(-10.000000, 0.000000)" fill="#FFFFFF">
            <path d="M24.677,18.972 C14.761,21.316 8.646,31.232 11.021,41.118 C12.238,46.372 15.652,50.766 20.373,53.2 C18.028,61.661 22.956,70.509 31.417,72.854 C35.811,74.129 40.501,73.416 44.36,70.983 C46.29,76.743 52.613,79.889 58.402,77.87 C59.709,77.425 60.896,76.743 61.964,75.852 C61.341,79.77 64.042,83.452 67.99,84.045 C71.909,84.668 75.56,81.996 76.184,78.107 C76.807,74.128 74.106,70.478 70.186,69.853 C68.495,69.587 66.802,69.914 65.348,70.804 C65.793,69.468 65.971,68.072 65.881,66.677 C76.807,66.945 85.861,58.335 86.158,47.409 C86.247,44.589 85.713,41.798 84.584,39.186 C91.176,32.387 91.086,21.581 84.317,14.961 C79.953,10.686 73.629,9.053 67.752,10.744 C59.916,-0.118 44.776,-2.522 33.94,5.284 C29.338,8.64 26.073,13.479 24.677,18.972 L24.677,18.972 Z" id="Shape" sketch:type="MSShapeGroup" transform="translate(49.985422, 42.420065) scale(-1, 1) translate(-49.985422, -42.420065) "></path>
            <path d="M19.0880741,88.3521842 C19.0880741,86.0361842 17.1580741,84.1351842 14.7830741,84.1351842 C12.4380741,84.1351842 10.5090741,86.0351842 10.5090741,88.3521842 C10.5090741,90.7561842 12.4390741,92.6571842 14.7830741,92.6571842 C17.1580741,92.6571842 19.0880741,90.7561842 19.0880741,88.3521842 L19.0880741,88.3521842 L19.0880741,88.3521842 Z" id="Shape" sketch:type="MSShapeGroup" transform="translate(14.798574, 88.396184) scale(-1, 1) translate(-14.798574, -88.396184) "></path>
        </g>
    </g>
</svg>