<?xml version="1.0" encoding="UTF-8" standalone="no"?>
<svg width="80px" height="90px" viewBox="0 0 80 90" version="1.1" xmlns="http://www.w3.org/2000/svg" xmlns:xlink="http://www.w3.org/1999/xlink" xmlns:sketch="http://www.bohemiancoding.com/sketch/ns">
    <!-- Generator: Sketch 3.3.3 (12081) - http://www.bohemiancoding.com/sketch -->
    <title>Slice 1</title>
    <desc>Created with Sketch.</desc>
    <defs></defs>
    <g id="Page-1" stroke="none" stroke-width="1" fill="none" fill-rule="evenodd" sketch:type="MSPage">
        <g id="robot" sketch:type="MSLayerGroup" transform="translate(-10.000000, 0.000000)" fill="#FFFFFF">
            <path d="M39.683,35.54 C39.683,37.618 37.905,39.303 35.712,39.303 C33.519,39.303 31.745,37.618 31.745,35.54 C31.745,33.469 33.519,31.791 35.712,31.791 C37.905,31.791 39.683,33.469 39.683,35.54 L39.683,35.54 Z M14.698,26.915 C14.698,21.719 18.955,17.488 24.188,17.488 L86.846,17.488 C87.433,17.488 87.997,17.548 88.55,17.644 C87.084,15.195 84.404,13.554 81.327,13.554 L80.181,13.554 L83.199,3.897 L70.535,0 L66.297,13.554 L33.7,13.554 L29.461,0 L16.798,3.897 L19.812,13.554 L18.669,13.554 C14.023,13.554 10.263,17.288 10.263,21.905 L10.263,81.65 C10.263,84.975 12.226,87.84 15.058,89.184 C14.832,88.382 14.698,87.537 14.698,86.653 L14.698,26.915 L14.698,26.915 Z M89.737,21.904 L89.737,81.649 C89.737,86.266 85.973,90 81.327,90 L18.669,90 C18.324,90 17.99,89.978 17.656,89.934 C17.151,88.947 16.862,87.833 16.862,86.653 L16.862,26.915 C16.862,22.899 20.147,19.633 24.188,19.633 L86.846,19.633 C87.8,19.633 88.709,19.819 89.548,20.153 C89.671,20.717 89.737,21.303 89.737,21.904 L89.737,21.904 Z M24.667,35.54 C24.667,41.471 29.74,46.273 36.005,46.273 C42.266,46.273 47.343,41.47 47.343,35.54 C47.343,29.624 42.266,24.814 36.005,24.814 C29.74,24.814 24.667,29.624 24.667,35.54 L24.667,35.54 Z M79.268,54.66 L26.485,54.66 L26.485,80.692 L79.268,80.692 L79.268,54.66 L79.268,54.66 Z M81.09,35.54 C81.09,29.624 76.017,24.814 69.752,24.814 C63.49,24.814 58.414,29.624 58.414,35.54 C58.414,41.471 63.49,46.273 69.752,46.273 C76.017,46.273 81.09,41.471 81.09,35.54 L81.09,35.54 Z M69.993,31.792 C67.8,31.792 66.021,33.469 66.021,35.541 C66.021,37.619 67.799,39.304 69.993,39.304 C72.182,39.304 73.96,37.619 73.96,35.541 C73.96,33.469 72.183,31.792 69.993,31.792 L69.993,31.792 Z M40.67,58.372 L31.314,58.372 L31.314,66.56 L40.67,66.56 L40.67,58.372 L40.67,58.372 Z M40.855,68.793 L31.499,68.793 L31.499,76.974 L40.855,76.974 L40.855,68.793 L40.855,68.793 Z M51.9,58.372 L42.54,58.372 L42.54,66.56 L51.9,66.56 L51.9,58.372 L51.9,58.372 Z M52.09,68.793 L42.73,68.793 L42.73,76.974 L52.09,76.974 L52.09,68.793 L52.09,68.793 Z M63.506,58.372 L54.146,58.372 L54.146,66.56 L63.506,66.56 L63.506,58.372 L63.506,58.372 Z M63.695,68.793 L54.335,68.793 L54.335,76.974 L63.695,76.974 L63.695,68.793 L63.695,68.793 Z M74.736,58.372 L65.376,58.372 L65.376,66.56 L74.736,66.56 L74.736,58.372 L74.736,58.372 Z M74.922,68.793 L65.562,68.793 L65.562,76.974 L74.922,76.974 L74.922,68.793 L74.922,68.793 Z" id="Shape" sketch:type="MSShapeGroup"></path>
        </g>
    </g>
</svg>